<svg width="64" height="64" viewBox="0 0 64 64" fill="none" xmlns="http://www.w3.org/2000/svg">
<path d="M37.3333 37.3336H18.6666C12.7756 37.3336 7.99997 32.5578 7.99997 26.6669C7.99997 20.7759 12.7756 16.0002 18.6666 16.0002H37.3333M37.3333 37.3336V16.0002V37.3336ZM37.3333 37.3336L53.6061 46.6322C54.6728 47.2418 56 46.4717 56 45.2432V8.09066C56 6.86213 54.6728 6.09194 53.6061 6.70146L37.3333 16.0002V37.3336Z" stroke="#BE123C" stroke-width="1.5"/>
<path d="M20.6857 51.4666L18.6666 37.333H29.3333L31.1392 49.9733C31.5936 53.1541 29.1253 55.9997 25.9124 55.9997C23.2849 55.9997 21.0573 54.0677 20.6857 51.4666Z" stroke="#BE123C" stroke-width="1.5"/>
</svg>
